<svg xmlns="http://www.w3.org/2000/svg" viewBox="0 0 111.318 60">
    <defs>
        <style>
            .cls-1{fill:#fff}
        </style>
    </defs>
    <g id="img_logo_ahora_principal_res" transform="translate(-1413 -102.533)">
        <path id="Path_7733" d="M85.1 22.7a10.857 10.857 0 0 1-.93 4.5 10.54 10.54 0 0 1-2.481 3.566 11.922 11.922 0 0 1-3.643 2.4 11.058 11.058 0 0 1-4.5.853 12.213 12.213 0 0 1-4.5-.853 11.922 11.922 0 0 1-3.643-2.4 11.69 11.69 0 0 1-2.481-3.643 11.143 11.143 0 0 1 0-8.915 13.178 13.178 0 0 1 2.481-3.643 11.367 11.367 0 0 1 8.07-3.265 12.212 12.212 0 0 1 4.5.853 11.922 11.922 0 0 1 3.643 2.4 11.358 11.358 0 0 1 2.481 3.566A10.364 10.364 0 0 1 85.1 22.7m-5.349 0a6.828 6.828 0 0 0-.465-2.558 7.35 7.35 0 0 0-1.318-2.093 5.617 5.617 0 0 0-1.938-1.4 6.391 6.391 0 0 0-2.4-.543 5.194 5.194 0 0 0-2.4.543 4.978 4.978 0 0 0-1.938 1.4 7.35 7.35 0 0 0-1.318 2.093 7.267 7.267 0 0 0 0 5.116 7.351 7.351 0 0 0 1.318 2.093 5.617 5.617 0 0 0 1.938 1.4 6.391 6.391 0 0 0 2.4.543 5.194 5.194 0 0 0 2.4-.543 4.978 4.978 0 0 0 1.938-1.4 7.35 7.35 0 0 0 1.318-2.093 9.89 9.89 0 0 0 .465-2.558" class="cls-1" data-name="Path 7733" transform="translate(1399.062 99.993)"/>
        <path id="Path_7734" d="M17.674 11.3v1.705a11.669 11.669 0 0 0-1.705-.853 11.058 11.058 0 0 0-4.5-.853 12.112 12.112 0 0 0-4.419.853 11.922 11.922 0 0 0-3.643 2.4A10.859 10.859 0 0 0 .93 18.2 10.25 10.25 0 0 0 0 22.618a10.857 10.857 0 0 0 .93 4.5 11.131 11.131 0 0 0 2.4 3.566 11.464 11.464 0 0 0 3.643 2.4 10.815 10.815 0 0 0 4.5.853 12.213 12.213 0 0 0 4.5-.853 11.67 11.67 0 0 0 1.705-.853v1.163h5.349V11.3zm-.465 13.876a7.35 7.35 0 0 1-1.318 2.093 5.617 5.617 0 0 1-1.938 1.4 6.391 6.391 0 0 1-2.4.543 5.194 5.194 0 0 1-2.4-.543 4.978 4.978 0 0 1-1.938-1.4 7.35 7.35 0 0 1-1.318-2.093 7.267 7.267 0 0 1 0-5.116 7.351 7.351 0 0 1 1.318-2.093 5.617 5.617 0 0 1 1.938-1.4 6.391 6.391 0 0 1 2.4-.543 5.194 5.194 0 0 1 2.4.543 4.978 4.978 0 0 1 1.938 1.4 7.351 7.351 0 0 1 1.318 2.093 6.828 6.828 0 0 1 .465 2.558 7.125 7.125 0 0 1-.465 2.558z" class="cls-1" data-name="Path 7734" transform="translate(1413 99.993)"/>
        <path id="Path_7735" d="M131.474 11.3v1.705a11.67 11.67 0 0 0-1.705-.853 11.058 11.058 0 0 0-4.5-.853 12.112 12.112 0 0 0-4.419.853 11.922 11.922 0 0 0-3.643 2.4 11.505 11.505 0 0 0-3.411 8.062 10.857 10.857 0 0 0 .93 4.5 11.69 11.69 0 0 0 2.481 3.643 11.464 11.464 0 0 0 3.643 2.4 10.815 10.815 0 0 0 4.5.853 12.213 12.213 0 0 0 4.5-.853 11.668 11.668 0 0 0 1.705-.853v1.163h5.345V11.3zm-.543 13.876a7.351 7.351 0 0 1-1.318 2.093 5.617 5.617 0 0 1-1.938 1.4 6.391 6.391 0 0 1-2.4.543 5.194 5.194 0 0 1-2.4-.543 4.978 4.978 0 0 1-1.938-1.4 7.351 7.351 0 0 1-1.318-2.093 7.267 7.267 0 0 1 0-5.116 7.351 7.351 0 0 1 1.318-2.093 5.617 5.617 0 0 1 1.938-1.4 6.391 6.391 0 0 1 2.4-.543 5.194 5.194 0 0 1 2.4.543 4.978 4.978 0 0 1 1.938 1.4 7.351 7.351 0 0 1 1.318 2.093 6.829 6.829 0 0 1 .465 2.558 4.868 4.868 0 0 1-.464 2.558z" class="cls-1" data-name="Path 7735" transform="translate(1387.417 99.993)"/>
        <path id="Path_7736" d="M43.067 8.14a9.319 9.319 0 0 0-4.419 1.085V0H33.3v30.853h5.349V17.984a4.419 4.419 0 1 1 8.837 0v12.869h5.349V17.984a9.744 9.744 0 0 0-9.768-9.844z" class="cls-1" data-name="Path 7736" transform="translate(1405.514 102.533)"/>
        <path id="Path_7737" d="M109.431 14.171a10.129 10.129 0 0 0-4.264-1.008 9.319 9.319 0 0 0-4.419 1.085V12H95.4v21.473h5.349V23.008a4.417 4.417 0 0 1 4.419-4.419 4.523 4.523 0 0 1 2.016.465z" class="cls-1" data-name="Path 7737" transform="translate(1391.553 99.836)"/>
        <path id="Path_7738" d="M100.773 45.508l-5.349 1.008 2.476 2.635c-1.24 1.163-1.938 1.783-1.938 1.783-.078.078-15.581 14.574-38.527 14.574-28.062 0-44.419-20.465-44.574-20.7l-1.783 1.4L9.3 47.6C10 48.531 27.129 70 57.44 70c24.806 0 41.085-15.19 41.705-15.888 0 0 .775-.7 1.938-1.783l2.558 2.713 1.24-5.271 1.24-5.271z" class="cls-1" data-name="Path 7738" transform="translate(1410.909 92.529)"/>
    </g>
</svg>
